<?xml version="1.0"?>
<svg width="64" height="64" xmlns="http://www.w3.org/2000/svg" xmlns:svg="http://www.w3.org/2000/svg">
 <g class="layer">
  <title>Layer 1</title>
  <path d="m31.59,33l20.76,0c0.27,0 0.5,-0.22 0.5,-0.5c0,-6.17 -2.5,-11.77 -6.55,-15.83c-0.01,-0.02 -0.02,-0.04 -0.03,-0.05s-0.03,-0.02 -0.05,-0.04c-4.06,-4.04 -9.66,-6.54 -15.83,-6.54c-6.17,0 -11.77,2.5 -15.84,6.55c-0.01,0.01 -0.03,0.01 -0.04,0.03s-0.03,0.03 -0.04,0.05c-4.04,4.06 -6.54,9.66 -6.54,15.83c0,6.17 2.5,11.77 6.54,15.83c0.01,0.02 0.02,0.04 0.04,0.05s0.03,0.02 0.05,0.04c4.06,4.04 9.66,6.54 15.83,6.54c6,0 11.64,-2.33 15.88,-6.58c0.19,-0.19 0.19,-0.51 0,-0.7l-14.68,-14.68zm-22.64,0l2.57,0c0.13,4.83 2.07,9.21 5.18,12.48l-1.82,1.82c-3.57,-3.74 -5.8,-8.76 -5.93,-14.3zm5.93,-15.3l1.82,1.82c-3.11,3.27 -5.05,7.65 -5.18,12.48l-2.57,0c0.13,-5.54 2.36,-10.56 5.93,-14.3zm36.94,14.3l-2.57,0c-0.12,-4.83 -2.07,-9.21 -5.17,-12.48l1.81,-1.82c3.57,3.74 5.8,8.76 5.93,14.3zm-20.93,-17.37c4.55,0.13 8.68,1.96 11.77,4.89l-11.77,11.77l0,-16.66zm-1,16.66l-11.78,-11.77c3.1,-2.93 7.22,-4.76 11.78,-4.89l0,16.66zm-0.71,0.71l-16.66,0c0.13,-4.55 1.96,-8.68 4.89,-11.78l11.77,11.78zm0,1l-11.77,11.78c-2.93,-3.1 -4.76,-7.23 -4.89,-11.78l16.66,0zm0.71,0.71l0,16.66c-4.56,-0.13 -8.68,-1.96 -11.78,-4.89l11.78,-11.77zm1,0l11.78,11.78c-3.22,3.04 -7.36,4.76 -11.78,4.88l0,-16.66zm12.48,-13.48c2.93,3.09 4.76,7.22 4.88,11.77l-16.66,0l11.78,-11.77zm0,-1.42c-3.28,-3.11 -7.65,-5.05 -12.48,-5.18l0,-2.57c5.54,0.13 10.56,2.36 14.3,5.94l-1.82,1.81zm-13.48,-5.18c-4.83,0.13 -9.21,2.07 -12.48,5.18l-1.82,-1.81c3.74,-3.58 8.76,-5.81 14.3,-5.94l0,2.57zm-12.48,32.56c3.27,3.11 7.65,5.05 12.48,5.18l0,2.56c-5.54,-0.12 -10.56,-2.35 -14.3,-5.93l1.82,-1.81zm13.48,5.18c4.69,-0.12 9.08,-1.94 12.49,-5.17l1.81,1.81c-3.89,3.72 -8.92,5.8 -14.3,5.93l0,-2.57z" fill="#000000" id="svg_1" transform="matrix(1, 0, 0, 1, 0, 0)"/>
  <path d="m16.69,28.65c0.86,0 1.57,-0.7 1.57,-1.56s-0.71,-1.57 -1.57,-1.57c-0.86,0 -1.57,0.7 -1.57,1.57s0.71,1.56 1.57,1.56zm0,-2.13c0.31,0 0.57,0.26 0.57,0.57s-0.26,0.56 -0.57,0.56c-0.31,0 -0.57,-0.25 -0.57,-0.56s0.26,-0.57 0.57,-0.57z" id="svg_2"/>
  <path d="m22.39,37.43c0.93,0 1.69,-0.76 1.69,-1.69s-0.76,-1.69 -1.69,-1.69c-0.93,0 -1.69,0.76 -1.69,1.69s0.76,1.69 1.69,1.69zm0,-2.38c0.38,0 0.69,0.31 0.69,0.69s-0.31,0.69 -0.69,0.69c-0.38,0 -0.69,-0.31 -0.69,-0.69s0.31,-0.69 0.69,-0.69z" id="svg_3"/>
  <path d="m27.76,39.79c-0.86,0 -1.56,0.7 -1.56,1.57c0,0.86 0.7,1.56 1.56,1.56s1.57,-0.7 1.57,-1.56c0,-0.87 -0.7,-1.57 -1.57,-1.57zm0,2.14c-0.31,0 -0.56,-0.26 -0.56,-0.57c0,-0.31 0.25,-0.57 0.56,-0.57s0.57,0.26 0.57,0.57c0,0.31 -0.25,0.57 -0.57,0.57z" id="svg_4"/>
  <path d="m33.87,44.8c-0.97,0 -1.77,0.79 -1.77,1.77s0.8,1.77 1.77,1.77c0.98,0 1.77,-0.8 1.77,-1.77s-0.79,-1.77 -1.77,-1.77zm0,2.54c-0.42,0 -0.77,-0.35 -0.77,-0.77s0.35,-0.77 0.77,-0.77c0.43,0 0.77,0.34 0.77,0.77s-0.34,0.77 -0.77,0.77z" fill="#000000" id="svg_5" transform="matrix(1, 0, 0, 1, 0, 0)"/>
  <path d="m43.1,25.52c-0.91,0 -1.65,0.74 -1.65,1.65c0,0.91 0.74,1.65 1.65,1.65s1.65,-0.74 1.65,-1.65c0,-0.91 -0.74,-1.65 -1.65,-1.65zm0,2.3c-0.36,0 -0.65,-0.29 -0.65,-0.65c0,-0.36 0.29,-0.65 0.65,-0.65s0.65,0.29 0.65,0.65c0,0.36 -0.29,0.65 -0.65,0.65z" id="svg_6"/>
  <path d="m34.61,21.42c-0.93,0 -1.69,0.76 -1.69,1.69c0,0.93 0.76,1.69 1.69,1.69c0.93,0 1.69,-0.76 1.69,-1.69c0,-0.93 -0.76,-1.69 -1.69,-1.69zm0,2.38c-0.38,0 -0.69,-0.31 -0.69,-0.69c0,-0.38 0.31,-0.69 0.69,-0.69c0.38,0 0.69,0.31 0.69,0.69c0,0.38 -0.31,0.69 -0.69,0.69z" id="svg_7"/>
  <path d="m24.65,22.83c0.87,0 1.56,-0.87 1.56,-1.98c0,-1.11 -0.69,-1.97 -1.56,-1.97s-1.57,0.86 -1.57,1.97c0,1.11 0.69,1.98 1.57,1.98zm0,-2.95c0.26,0 0.56,0.41 0.56,0.97c0,0.56 -0.3,0.98 -0.56,0.98s-0.57,-0.42 -0.57,-0.98c0,-0.55 0.3,-0.97 0.57,-0.97z" id="svg_8"/>
  <path d="m15.63,34.38c-0.28,0 -0.5,0.22 -0.5,0.5l0,3.44c0,0.28 0.22,0.5 0.5,0.5s0.5,-0.22 0.5,-0.5l0,-3.44c0,-0.28 -0.23,-0.5 -0.5,-0.5z" id="svg_9"/>
  <path d="m21.93,30.8c0.07,0.19 0.26,0.31 0.46,0.31c0.06,0 0.12,-0.01 0.18,-0.03c0.26,-0.1 0.39,-0.39 0.29,-0.65l-1.19,-3.03c-0.1,-0.26 -0.39,-0.39 -0.65,-0.29c-0.26,0.1 -0.38,0.4 -0.28,0.65l1.19,3.04z" id="svg_10"/>
  <path d="m25.21,24.9c0.02,0.26 0.24,0.47 0.5,0.47c0.01,0 0.02,0 0.03,0l3.12,-0.16c0.27,-0.02 0.48,-0.25 0.47,-0.53c-0.02,-0.27 -0.25,-0.5 -0.53,-0.47l-3.11,0.16c-0.28,0.02 -0.49,0.25 -0.48,0.53z" id="svg_11"/>
  <path d="m24.6,41.7c-0.13,-0.24 -0.43,-0.34 -0.68,-0.21c-0.24,0.13 -0.34,0.43 -0.21,0.68l1.56,2.95c0.09,0.17 0.26,0.27 0.44,0.27c0.08,0 0.16,-0.02 0.24,-0.06c0.24,-0.13 0.33,-0.43 0.21,-0.68l-1.56,-2.95z" id="svg_12"/>
  <path d="m37.44,42.98l-2.58,-1.48c-0.24,-0.13 -0.55,-0.06 -0.68,0.19c-0.14,0.23 -0.06,0.54 0.18,0.68l2.59,1.48c0.07,0.04 0.16,0.06 0.24,0.06c0.18,0 0.35,-0.09 0.44,-0.25c0.14,-0.24 0.05,-0.55 -0.19,-0.68z" fill="#000000" id="svg_13"/>
  <path d="m39.13,27.74l-2.21,1.47c-0.23,0.16 -0.29,0.47 -0.14,0.7c0.1,0.14 0.25,0.22 0.42,0.22c0.09,0 0.19,-0.03 0.27,-0.09l2.22,-1.47c0.23,-0.15 0.29,-0.46 0.14,-0.69c-0.16,-0.23 -0.47,-0.29 -0.7,-0.14z" id="svg_14"/>
  <path d="m37.03,19.59l-1.48,-2.14c-0.15,-0.23 -0.47,-0.28 -0.69,-0.12c-0.23,0.15 -0.28,0.47 -0.13,0.69l1.48,2.14c0.1,0.14 0.25,0.21 0.41,0.21c0.1,0 0.2,-0.03 0.28,-0.09c0.23,-0.16 0.29,-0.47 0.13,-0.69z" id="svg_15"/>
  <path d="m56.57,33.67l-21.96,0c-0.06,0 -0.13,0.01 -0.19,0.04c-0.12,0.05 -0.22,0.14 -0.27,0.27c-0.05,0.12 -0.05,0.26 0,0.38c0.02,0.06 0.06,0.12 0.11,0.16l15.53,15.53c0.09,0.1 0.22,0.15 0.35,0.15s0.26,-0.05 0.35,-0.15c4.25,-4.24 6.58,-9.88 6.58,-15.88c0,-0.28 -0.22,-0.5 -0.5,-0.5zm-4.09,1c-0.12,4.42 -1.84,8.57 -4.88,11.78l-11.78,-11.78l16.66,0zm-4.17,12.49c3.23,-3.41 5.05,-7.8 5.17,-12.49l2.57,0c-0.12,5.38 -2.21,10.42 -5.93,14.3l-1.81,-1.81z" fill="#ff0000" id="svg_16"/>
  <path d="m41.42,35.72c-0.86,0 -1.57,0.7 -1.57,1.56c0,0.87 0.71,1.57 1.57,1.57s1.57,-0.7 1.57,-1.57c0,-0.86 -0.71,-1.56 -1.57,-1.56zm0,2.13c-0.31,0 -0.57,-0.25 -0.57,-0.56c0,-0.32 0.26,-0.57 0.57,-0.57s0.57,0.25 0.57,0.57c0,0.31 -0.26,0.56 -0.57,0.56z" fill="#000000" id="svg_17" transform="matrix(1, 0, 0, 1, 0, 0)"/>
  <path d="m48.25,40.46c0.26,-0.11 0.38,-0.4 0.28,-0.65s-0.4,-0.38 -0.65,-0.28l-3.28,1.31c-0.26,0.11 -0.38,0.4 -0.28,0.65c0.08,0.2 0.27,0.32 0.46,0.32c0.07,0 0.13,-0.02 0.19,-0.04l3.28,-1.31z" fill="#000000" id="svg_18" transform="matrix(1, 0, 0, 1, 0, 0)"/>
  <path d="m29.02,12.92c-1.03,0.1 -1.92,0.19 -2.78,0.31c-0.87,0.12 -1.71,0.28 -2.59,0.42c-0.86,0.13 -1.68,0.4 -2.53,0.67l-0.81,0.31l-0.82,0.3l0.78,-0.04" fill="none" fill-opacity="null" id="svg_21" stroke="null" stroke-dasharray="null" stroke-linecap="null" stroke-linejoin="null" stroke-opacity="null" stroke-width="null" transform="matrix(1, 0, 0, 1, 0, 0)"/>
  <path d="m18.6,26.15c0.42,0.75 0.63,1.55 0.63,2.41c0,0.91 -0.57,1.61 -1.46,1.65c-0.86,0.05 -1.79,0.05 -2.57,-0.19c-0.88,-0.27 -2,-0.2 -2.54,-0.93c-0.46,-0.63 -0.07,-1.69 0.26,-2.48l0.35,-0.83l0.45,-0.78" fill="none" fill-opacity="null" id="svg_22" stroke="null" stroke-dasharray="null" stroke-linecap="null" stroke-linejoin="null" stroke-opacity="null" stroke-width="null"/>
 </g>

</svg>